<?xml version="1.0" encoding="utf-8"?>
<svg viewBox="74.91 46.931 272.112 128.159" xmlns="http://www.w3.org/2000/svg">
  <defs>
    <filter id="editing-glowing" x="-100%" y="-100%" width="300%" height="300%">
      <feGaussianBlur in="SourceGraphic" result="blur" stdDeviation="8.5"/>
      <feMerge>
        <feMergeNode in="blur"/>
        <feMergeNode in="SourceGraphic"/>
      </feMerge>
    </filter>
    <linearGradient id="editing-glowing-gradient" x1="0.953153893518325" x2="0.046846106481674976" y1="0.7113091308703496" y2="0.28869086912965036">
      <stop offset="0" stop-color="#005279"/>
      <stop offset="1" stop-color="#005279"/>
    </linearGradient>
  </defs>
  <g filter="url(#editing-glowing)" transform="matrix(0.935652, 0, 0, 0.935652, -28.57996, 36.646553)" style="">
    <g transform="translate(126.44998598098755, 121.0050048828125)">
      <path d="M6.19-42.34L41.18-86.54L41.18-86.54Q43.92-87.41 47.45-87.98L47.45-87.98L47.45-87.98Q50.98-88.56 53.86-88.56L53.86-88.56L53.86-88.56Q57.17-88.56 60.26-87.91L60.26-87.91L60.26-87.91Q63.36-87.26 65.81-85.75L65.81-85.75L65.81-85.75Q68.26-84.24 69.70-81.65L69.70-81.65L69.70-81.65Q71.14-79.06 71.14-75.17L71.14-75.17L71.14-36.86L83.95-36.86L83.95-36.86Q84.82-35.28 85.68-32.69L85.68-32.69L85.68-32.69Q86.54-30.10 86.54-27.22L86.54-27.22L86.54-27.22Q86.54-21.74 84.10-19.44L84.10-19.44L84.10-19.44Q81.65-17.14 77.90-17.14L77.90-17.14L71.14-17.14L71.14-0.14L71.14-0.14Q69.55 0.14 66.38 0.65L66.38 0.65L66.38 0.65Q63.22 1.15 60.34 1.15L60.34 1.15L60.34 1.15Q57.17 1.15 54.72 0.86L54.72 0.86L54.72 0.86Q52.27 0.58 50.62-0.50L50.62-0.50L50.62-0.50Q48.96-1.58 48.10-3.60L48.10-3.60L48.10-3.60Q47.23-5.62 47.23-9.07L47.23-9.07L47.23-17.14L11.09-17.14L11.09-17.14Q7.78-18.86 5.40-22.25L5.40-22.25L5.40-22.25Q3.02-25.63 3.02-30.53L3.02-30.53L3.02-30.53Q3.02-33.26 3.74-36.58L3.74-36.58L3.74-36.58Q4.46-39.89 6.19-42.34L6.19-42.34ZM48.53-36.86L48.53-63.94L48.10-63.94L28.94-36.86L48.53-36.86ZM144.86-43.78L144.86-43.78L144.86-43.78Q144.86-56.45 141.19-63.36L141.19-63.36L141.19-63.36Q137.52-70.27 130.75-70.27L130.75-70.27L130.75-70.27Q123.98-70.27 120.46-63.36L120.46-63.36L120.46-63.36Q116.93-56.45 116.93-43.78L116.93-43.78L116.93-43.78Q116.93-31.10 120.46-24.12L120.46-24.12L120.46-24.12Q123.98-17.14 130.75-17.14L130.75-17.14L130.75-17.14Q137.52-17.14 141.19-24.12L141.19-24.12L141.19-24.12Q144.86-31.10 144.86-43.78ZM169.49-43.78L169.49-43.78L169.49-43.78Q169.49-32.69 166.61-24.05L166.61-24.05L166.61-24.05Q163.73-15.41 158.62-9.58L158.62-9.58L158.62-9.58Q153.50-3.74 146.38-0.72L146.38-0.72L146.38-0.72Q139.25 2.30 130.90 2.30L130.90 2.30L130.90 2.30Q122.40 2.30 115.27-0.72L115.27-0.72L115.27-0.72Q108.14-3.74 103.03-9.58L103.03-9.58L103.03-9.58Q97.92-15.41 95.11-24.05L95.11-24.05L95.11-24.05Q92.30-32.69 92.30-43.78L92.30-43.78L92.30-43.78Q92.30-54.86 95.11-63.43L95.11-63.43L95.11-63.43Q97.92-72.00 103.03-77.83L103.03-77.83L103.03-77.83Q108.14-83.66 115.27-86.69L115.27-86.69L115.27-86.69Q122.40-89.71 130.90-89.71L130.90-89.71L130.90-89.71Q139.25-89.71 146.38-86.69L146.38-86.69L146.38-86.69Q153.50-83.66 158.62-77.83L158.62-77.83L158.62-77.83Q163.73-72.00 166.61-63.43L166.61-63.43L166.61-63.43Q169.49-54.86 169.49-43.78ZM208.08-89.71L208.08-89.71L208.08-89.71Q224.64-89.71 233.28-82.87L233.28-82.87L233.28-82.87Q241.92-76.03 241.92-64.51L241.92-64.51L241.92-64.51Q241.92-57.60 238.25-52.78L238.25-52.78L238.25-52.78Q234.58-47.95 229.54-45.50L229.54-45.50L229.54-45.50Q232.56-44.35 235.15-42.62L235.15-42.62L235.15-42.62Q237.74-40.90 239.76-38.30L239.76-38.30L239.76-38.30Q241.78-35.71 242.93-32.26L242.93-32.26L242.93-32.26Q244.08-28.80 244.08-24.19L244.08-24.19L244.08-24.19Q244.08-18.00 241.42-13.10L241.42-13.10L241.42-13.10Q238.75-8.21 234.00-4.75L234.00-4.75L234.00-4.75Q229.25-1.30 222.70 0.50L222.70 0.50L222.70 0.50Q216.14 2.30 208.37 2.30L208.37 2.30L208.37 2.30Q193.39 2.30 185.76-1.87L185.76-1.87L185.76-1.87Q178.13-6.05 178.13-12.53L178.13-12.53L178.13-12.53Q178.13-16.42 180.00-19.22L180.00-19.22L180.00-19.22Q181.87-22.03 184.61-23.62L184.61-23.62L184.61-23.62Q187.49-21.60 192.31-19.37L192.31-19.37L192.31-19.37Q197.14-17.14 204.91-17.14L204.91-17.14L204.91-17.14Q212.26-17.14 215.78-19.73L215.78-19.73L215.78-19.73Q219.31-22.32 219.31-26.50L219.31-26.50L219.31-26.50Q219.31-30.67 216.50-32.83L216.50-32.83L216.50-32.83Q213.70-34.99 206.78-34.99L206.78-34.99L193.25-34.99L193.25-34.99Q192.24-36.58 191.52-38.88L191.52-38.88L191.52-38.88Q190.80-41.18 190.80-44.35L190.80-44.35L190.80-44.35Q190.80-47.66 191.45-50.04L191.45-50.04L191.45-50.04Q192.10-52.42 193.25-54.00L193.25-54.00L206.78-54.00L206.78-54.00Q217.15-54.00 217.15-61.92L217.15-61.92L217.15-61.92Q217.15-65.66 213.84-67.97L213.84-67.97L213.84-67.97Q210.53-70.27 203.90-70.27L203.90-70.27L203.90-70.27Q198.00-70.27 193.54-68.90L193.54-68.90L193.54-68.90Q189.07-67.54 186.19-65.52L186.19-65.52L186.19-65.52Q183.74-67.25 182.16-69.77L182.16-69.77L182.16-69.77Q180.58-72.29 180.58-75.74L180.58-75.74L180.58-75.74Q180.58-82.94 188.06-86.33L188.06-86.33L188.06-86.33Q195.55-89.71 208.08-89.71Z" fill="url(#editing-glowing-gradient)"/>
    </g>
  </g>
</svg>