<?xml version="1.0" encoding="utf-8"?>
<svg viewBox="74.91 46.931 272.112 128.159" xmlns="http://www.w3.org/2000/svg">
  <defs>
    <filter id="filter-2" x="-100%" y="-100%" width="300%" height="300%">
      <feGaussianBlur in="SourceGraphic" result="blur" stdDeviation="8.5"/>
      <feMerge>
        <feMergeNode in="blur"/>
        <feMergeNode in="SourceGraphic"/>
      </feMerge>
    </filter>
    <linearGradient id="gradient-1" x1="0.953153893518325" x2="0.046846106481674976" y1="0.7113091308703496" y2="0.28869086912965036">
      <stop offset="0" stop-color="#005279"/>
      <stop offset="1" stop-color="#005279"/>
    </linearGradient>
  </defs>
  <g filter="url(#filter-2)" transform="matrix(0.949864, 0, 0, 0.949864, -27.200462, 35.619816)" style="">
    <g transform="translate(117.99474000930786, 121.0050048828125)">
      <path d="M6.19-42.34L41.18-86.54L41.18-86.54Q43.92-87.41 47.45-87.98L47.45-87.98L47.45-87.98Q50.98-88.56 53.86-88.56L53.86-88.56L53.86-88.56Q57.17-88.56 60.26-87.91L60.26-87.91L60.26-87.91Q63.36-87.26 65.81-85.75L65.81-85.75L65.81-85.75Q68.26-84.24 69.70-81.65L69.70-81.65L69.70-81.65Q71.14-79.06 71.14-75.17L71.14-75.17L71.14-36.86L83.95-36.86L83.95-36.86Q84.82-35.28 85.68-32.69L85.68-32.69L85.68-32.69Q86.54-30.10 86.54-27.22L86.54-27.22L86.54-27.22Q86.54-21.74 84.10-19.44L84.10-19.44L84.10-19.44Q81.65-17.14 77.90-17.14L77.90-17.14L71.14-17.14L71.14-0.14L71.14-0.14Q69.55 0.14 66.38 0.65L66.38 0.65L66.38 0.65Q63.22 1.15 60.34 1.15L60.34 1.15L60.34 1.15Q57.17 1.15 54.72 0.86L54.72 0.86L54.72 0.86Q52.27 0.58 50.62-0.50L50.62-0.50L50.62-0.50Q48.96-1.58 48.10-3.60L48.10-3.60L48.10-3.60Q47.23-5.62 47.23-9.07L47.23-9.07L47.23-17.14L11.09-17.14L11.09-17.14Q7.78-18.86 5.40-22.25L5.40-22.25L5.40-22.25Q3.02-25.63 3.02-30.53L3.02-30.53L3.02-30.53Q3.02-33.26 3.74-36.58L3.74-36.58L3.74-36.58Q4.46-39.89 6.19-42.34L6.19-42.34ZM48.53-36.86L48.53-63.94L48.10-63.94L28.94-36.86L48.53-36.86ZM144.86-43.78L144.86-43.78L144.86-43.78Q144.86-56.45 141.19-63.36L141.19-63.36L141.19-63.36Q137.52-70.27 130.75-70.27L130.75-70.27L130.75-70.27Q123.98-70.27 120.46-63.36L120.46-63.36L120.46-63.36Q116.93-56.45 116.93-43.78L116.93-43.78L116.93-43.78Q116.93-31.10 120.46-24.12L120.46-24.12L120.46-24.12Q123.98-17.14 130.75-17.14L130.75-17.14L130.75-17.14Q137.52-17.14 141.19-24.12L141.19-24.12L141.19-24.12Q144.86-31.10 144.86-43.78ZM169.49-43.78L169.49-43.78L169.49-43.78Q169.49-32.69 166.61-24.05L166.61-24.05L166.61-24.05Q163.73-15.41 158.62-9.58L158.62-9.58L158.62-9.58Q153.50-3.74 146.38-0.72L146.38-0.72L146.38-0.72Q139.25 2.30 130.90 2.30L130.90 2.30L130.90 2.30Q122.40 2.30 115.27-0.72L115.27-0.72L115.27-0.72Q108.14-3.74 103.03-9.58L103.03-9.58L103.03-9.58Q97.92-15.41 95.11-24.05L95.11-24.05L95.11-24.05Q92.30-32.69 92.30-43.78L92.30-43.78L92.30-43.78Q92.30-54.86 95.11-63.43L95.11-63.43L95.11-63.43Q97.92-72.00 103.03-77.83L103.03-77.83L103.03-77.83Q108.14-83.66 115.27-86.69L115.27-86.69L115.27-86.69Q122.40-89.71 130.90-89.71L130.90-89.71L130.90-89.71Q139.25-89.71 146.38-86.69L146.38-86.69L146.38-86.69Q153.50-83.66 158.62-77.83L158.62-77.83L158.62-77.83Q163.73-72.00 166.61-63.43L166.61-63.43L166.61-63.43Q169.49-54.86 169.49-43.78ZM180.72-42.34L215.71-86.54L215.71-86.54Q218.45-87.41 221.98-87.98L221.98-87.98L221.98-87.98Q225.50-88.56 228.38-88.56L228.38-88.56L228.38-88.56Q231.70-88.56 234.79-87.91L234.79-87.91L234.79-87.91Q237.89-87.26 240.34-85.75L240.34-85.75L240.34-85.75Q242.78-84.24 244.22-81.65L244.22-81.65L244.22-81.65Q245.66-79.06 245.66-75.17L245.66-75.17L245.66-36.86L258.48-36.86L258.48-36.86Q259.34-35.28 260.21-32.69L260.21-32.69L260.21-32.69Q261.07-30.10 261.07-27.22L261.07-27.22L261.07-27.22Q261.07-21.74 258.62-19.44L258.62-19.44L258.62-19.44Q256.18-17.14 252.43-17.14L252.43-17.14L245.66-17.14L245.66-0.14L245.66-0.14Q244.08 0.14 240.91 0.65L240.91 0.65L240.91 0.65Q237.74 1.15 234.86 1.15L234.86 1.15L234.86 1.15Q231.70 1.15 229.25 0.86L229.25 0.86L229.25 0.86Q226.80 0.58 225.14-0.50L225.14-0.50L225.14-0.50Q223.49-1.58 222.62-3.60L222.62-3.60L222.62-3.60Q221.76-5.62 221.76-9.07L221.76-9.07L221.76-17.14L185.62-17.14L185.62-17.14Q182.30-18.86 179.93-22.25L179.93-22.25L179.93-22.25Q177.55-25.63 177.55-30.53L177.55-30.53L177.55-30.53Q177.55-33.26 178.27-36.58L178.27-36.58L178.27-36.58Q178.99-39.89 180.72-42.34L180.72-42.34ZM223.06-36.86L223.06-63.94L222.62-63.94L203.47-36.86L223.06-36.86Z" fill="url(#gradient-1)"/>
    </g>
  </g>
</svg>