<svg width="541.0437499999999px" height="176px" xmlns="http://www.w3.org/2000/svg" viewBox="-20.521874999999966 -13 541.0437499999999 176" style="background: none;" preserveAspectRatio="xMidYMid"><defs><linearGradient id="editing-glowing-gradient" x1="0.953153893518325" x2="0.046846106481674976" y1="0.7113091308703496" y2="0.28869086912965036"><stop offset="0" stop-color="#005279"></stop><stop offset="1" stop-color="#005279"></stop></linearGradient><filter id="editing-glowing" x="-100%" y="-100%" width="300%" height="300%"><feGaussianBlur in="SourceGraphic" result="blur" stdDeviation="11"></feGaussianBlur><feMerge><feMergeNode in="blur"></feMergeNode><feMergeNode in="SourceGraphic"></feMergeNode></feMerge></filter></defs><g filter="url(#editing-glowing)"><g transform="translate(58.26498460769653, 98.1500015258789)"><path d="M11.38-43.63L35.35-43.63L35.35-43.63Q35.86-42.84 36.25-41.51L36.25-41.51L36.25-41.51Q36.65-40.18 36.65-38.74L36.65-38.74L36.65-38.74Q36.65-35.93 35.46-34.74L35.46-34.74L35.46-34.74Q34.27-33.55 32.26-33.55L32.26-33.55L17.14-33.55L17.14-25.42L32.90-25.42L32.90-25.42Q33.48-24.62 33.88-23.33L33.88-23.33L33.88-23.33Q34.27-22.03 34.27-20.59L34.27-20.59L34.27-20.59Q34.27-17.86 33.08-16.67L33.08-16.67L33.08-16.67Q31.90-15.48 29.88-15.48L29.88-15.48L17.28-15.48L17.28-0.29L17.28-0.29Q16.49-0.07 14.80 0.14L14.80 0.14L14.80 0.14Q13.10 0.36 11.45 0.36L11.45 0.36L11.45 0.36Q9.79 0.36 8.53 0.11L8.53 0.11L8.53 0.11Q7.27-0.14 6.41-0.79L6.41-0.79L6.41-0.79Q5.54-1.44 5.11-2.59L5.11-2.59L5.11-2.59Q4.68-3.74 4.68-5.62L4.68-5.62L4.68-36.94L4.68-36.94Q4.68-40.03 6.48-41.83L6.48-41.83L6.48-41.83Q8.28-43.63 11.38-43.63L11.38-43.63ZM40.75-21.89L40.75-21.89L40.75-21.89Q40.75-27.50 42.52-31.82L42.52-31.82L42.52-31.82Q44.28-36.14 47.34-39.06L47.34-39.06L47.34-39.06Q50.40-41.98 54.54-43.49L54.54-43.49L54.54-43.49Q58.68-45.00 63.50-45.00L63.50-45.00L63.50-45.00Q68.33-45.00 72.47-43.49L72.47-43.49L72.47-43.49Q76.61-41.98 79.70-39.06L79.70-39.06L79.70-39.06Q82.80-36.14 84.56-31.82L84.56-31.82L84.56-31.82Q86.33-27.50 86.33-21.89L86.33-21.89L86.33-21.89Q86.33-16.27 84.60-11.92L84.60-11.92L84.60-11.92Q82.87-7.56 79.81-4.64L79.81-4.64L79.81-4.64Q76.75-1.73 72.58-0.22L72.58-0.22L72.58-0.22Q68.40 1.30 63.50 1.30L63.50 1.30L63.50 1.30Q58.61 1.30 54.43-0.25L54.43-0.25L54.43-0.25Q50.26-1.80 47.23-4.75L47.23-4.75L47.23-4.75Q44.21-7.70 42.48-12.02L42.48-12.02L42.48-12.02Q40.75-16.34 40.75-21.89ZM53.71-21.89L53.71-21.89L53.71-21.89Q53.71-15.34 56.38-12.10L56.38-12.10L56.38-12.10Q59.04-8.86 63.50-8.86L63.50-8.86L63.50-8.86Q68.04-8.86 70.70-12.10L70.70-12.10L70.70-12.10Q73.37-15.34 73.37-21.89L73.37-21.89L73.37-21.89Q73.37-28.37 70.74-31.61L70.74-31.61L70.74-31.61Q68.11-34.85 63.58-34.85L63.58-34.85L63.58-34.85Q59.11-34.85 56.41-31.64L56.41-31.64L56.41-31.64Q53.71-28.44 53.71-21.89ZM109.87-14.11L106.06-14.11L106.06-0.29L106.06-0.29Q105.26-0.07 103.57 0.14L103.57 0.14L103.57 0.14Q101.88 0.36 100.22 0.36L100.22 0.36L100.22 0.36Q98.57 0.36 97.31 0.11L97.31 0.11L97.31 0.11Q96.05-0.14 95.22-0.79L95.22-0.79L95.22-0.79Q94.39-1.44 93.96-2.59L93.96-2.59L93.96-2.59Q93.53-3.74 93.53-5.62L93.53-5.62L93.53-39.53L93.53-39.53Q93.53-41.04 94.36-41.87L94.36-41.87L94.36-41.87Q95.18-42.70 96.62-43.20L96.62-43.20L96.62-43.20Q99.07-44.06 102.31-44.46L102.31-44.46L102.31-44.46Q105.55-44.86 109.22-44.86L109.22-44.86L109.22-44.86Q119.16-44.86 124.20-40.68L124.20-40.68L124.20-40.68Q129.24-36.50 129.24-29.38L129.24-29.38L129.24-29.38Q129.24-24.91 126.94-21.74L126.94-21.74L126.94-21.74Q124.63-18.58 121.46-16.85L121.46-16.85L121.46-16.85Q124.06-13.32 126.58-10.22L126.58-10.22L126.58-10.22Q129.10-7.13 130.54-4.61L130.54-4.61L130.54-4.61Q129.82-2.09 127.91-0.76L127.91-0.76L127.91-0.76Q126.00 0.58 123.62 0.58L123.62 0.58L123.62 0.58Q122.04 0.58 120.89 0.22L120.89 0.22L120.89 0.22Q119.74-0.14 118.87-0.79L118.87-0.79L118.87-0.79Q118.01-1.44 117.29-2.38L117.29-2.38L117.29-2.38Q116.57-3.31 115.92-4.39L115.92-4.39L109.87-14.11ZM105.98-23.69L110.59-23.69L110.59-23.69Q113.33-23.69 114.91-25.09L114.91-25.09L114.91-25.09Q116.50-26.50 116.50-29.23L116.50-29.23L116.50-29.23Q116.50-31.97 114.73-33.37L114.73-33.37L114.73-33.37Q112.97-34.78 109.15-34.78L109.15-34.78L109.15-34.78Q108.07-34.78 107.42-34.70L107.42-34.70L107.42-34.70Q106.78-34.63 105.98-34.49L105.98-34.49L105.98-23.69ZM149.62-17.78L149.62-9.00L149.62-9.00Q150.62-8.71 152.21-8.60L152.21-8.60L152.21-8.60Q153.79-8.50 155.23-8.50L155.23-8.50L155.23-8.50Q158.11-8.50 160.02-9.68L160.02-9.68L160.02-9.68Q161.93-10.87 161.93-13.39L161.93-13.39L161.93-13.39Q161.93-15.77 160.34-16.78L160.34-16.78L160.34-16.78Q158.76-17.78 155.52-17.78L155.52-17.78L149.62-17.78ZM149.62-35.06L149.62-26.57L154.87-26.57L154.87-26.57Q157.97-26.57 159.37-27.72L159.37-27.72L159.37-27.72Q160.78-28.87 160.78-31.10L160.78-31.10L160.78-31.10Q160.78-33.05 159.16-34.20L159.16-34.20L159.16-34.20Q157.54-35.35 154.30-35.35L154.30-35.35L154.30-35.35Q153.22-35.35 151.81-35.28L151.81-35.28L151.81-35.28Q150.41-35.21 149.62-35.06L149.62-35.06ZM154.30 1.15L154.30 1.15L154.30 1.15Q153.07 1.15 151.42 1.08L151.42 1.08L151.42 1.08Q149.76 1.01 148.00 0.79L148.00 0.79L148.00 0.79Q146.23 0.58 144.50 0.25L144.50 0.25L144.50 0.25Q142.78-0.07 141.34-0.65L141.34-0.65L141.34-0.65Q137.38-2.16 137.38-5.90L137.38-5.90L137.38-39.53L137.38-39.53Q137.38-41.04 138.20-41.87L138.20-41.87L138.20-41.87Q139.03-42.70 140.47-43.20L140.47-43.20L140.47-43.20Q142.92-44.06 146.59-44.46L146.59-44.46L146.59-44.46Q150.26-44.86 154.15-44.86L154.15-44.86L154.15-44.86Q163.37-44.86 168.34-41.76L168.34-41.76L168.34-41.76Q173.30-38.66 173.30-32.18L173.30-32.18L173.30-32.18Q173.30-28.94 171.43-26.60L171.43-26.60L171.43-26.60Q169.56-24.26 166.39-23.18L166.39-23.18L166.39-23.18Q169.99-22.18 172.40-19.51L172.40-19.51L172.40-19.51Q174.82-16.85 174.82-12.82L174.82-12.82L174.82-12.82Q174.82-5.69 169.52-2.27L169.52-2.27L169.52-2.27Q164.23 1.15 154.30 1.15ZM194.54-38.30L194.54-0.29L194.54-0.29Q193.75-0.07 192.06 0.14L192.06 0.14L192.06 0.14Q190.37 0.36 188.71 0.36L188.71 0.36L188.71 0.36Q187.06 0.36 185.80 0.11L185.80 0.11L185.80 0.11Q184.54-0.14 183.67-0.79L183.67-0.79L183.67-0.79Q182.81-1.44 182.38-2.59L182.38-2.59L182.38-2.59Q181.94-3.74 181.94-5.62L181.94-5.62L181.94-43.63L181.94-43.63Q182.74-43.78 184.46-44.03L184.46-44.03L184.46-44.03Q186.19-44.28 187.78-44.28L187.78-44.28L187.78-44.28Q189.43-44.28 190.69-44.03L190.69-44.03L190.69-44.03Q191.95-43.78 192.82-43.13L192.82-43.13L192.82-43.13Q193.68-42.48 194.11-41.33L194.11-41.33L194.11-41.33Q194.54-40.18 194.54-38.30L194.54-38.30ZM216.43-34.42L216.43-9.36L216.43-9.36Q217.22-9.22 218.38-9.11L218.38-9.11L218.38-9.11Q219.53-9.00 220.54-9.00L220.54-9.00L220.54-9.00Q222.98-9.00 225.04-9.72L225.04-9.72L225.04-9.72Q227.09-10.44 228.56-11.95L228.56-11.95L228.56-11.95Q230.04-13.46 230.87-15.88L230.87-15.88L230.87-15.88Q231.70-18.29 231.70-21.67L231.70-21.67L231.70-21.67Q231.70-28.15 228.67-31.43L228.67-31.43L228.67-31.43Q225.65-34.70 220.61-34.70L220.61-34.70L220.61-34.70Q219.60-34.70 218.56-34.63L218.56-34.63L218.56-34.63Q217.51-34.56 216.43-34.42L216.43-34.42ZM220.46 1.15L220.46 1.15L220.46 1.15Q219.24 1.15 217.66 1.08L217.66 1.08L217.66 1.08Q216.07 1.01 214.38 0.79L214.38 0.79L214.38 0.79Q212.69 0.58 211.00 0.25L211.00 0.25L211.00 0.25Q209.30-0.07 207.86-0.65L207.86-0.65L207.86-0.65Q203.90-2.16 203.90-5.90L203.90-5.90L203.90-39.53L203.90-39.53Q203.90-41.04 204.73-41.87L204.73-41.87L204.73-41.87Q205.56-42.70 207.00-43.20L207.00-43.20L207.00-43.20Q210.10-44.21 213.55-44.53L213.55-44.53L213.55-44.53Q217.01-44.86 219.74-44.86L219.74-44.86L219.74-44.86Q225.36-44.86 229.93-43.49L229.93-43.49L229.93-43.49Q234.50-42.12 237.78-39.28L237.78-39.28L237.78-39.28Q241.06-36.43 242.86-32.11L242.86-32.11L242.86-32.11Q244.66-27.79 244.66-21.89L244.66-21.89L244.66-21.89Q244.66-16.13 242.93-11.84L242.93-11.84L242.93-11.84Q241.20-7.56 238.00-4.64L238.00-4.64L238.00-4.64Q234.79-1.73 230.33-0.29L230.33-0.29L230.33-0.29Q225.86 1.15 220.46 1.15ZM264.38-34.42L264.38-9.36L264.38-9.36Q265.18-9.22 266.33-9.11L266.33-9.11L266.33-9.11Q267.48-9.00 268.49-9.00L268.49-9.00L268.49-9.00Q270.94-9.00 272.99-9.72L272.99-9.72L272.99-9.72Q275.04-10.44 276.52-11.95L276.52-11.95L276.52-11.95Q277.99-13.46 278.82-15.88L278.82-15.88L278.82-15.88Q279.65-18.29 279.65-21.67L279.65-21.67L279.65-21.67Q279.65-28.15 276.62-31.43L276.62-31.43L276.62-31.43Q273.60-34.70 268.56-34.70L268.56-34.70L268.56-34.70Q267.55-34.70 266.51-34.63L266.51-34.63L266.51-34.63Q265.46-34.56 264.38-34.42L264.38-34.42ZM268.42 1.15L268.42 1.15L268.42 1.15Q267.19 1.15 265.61 1.08L265.61 1.08L265.61 1.08Q264.02 1.01 262.33 0.79L262.33 0.79L262.33 0.79Q260.64 0.58 258.95 0.25L258.95 0.25L258.95 0.25Q257.26-0.07 255.82-0.65L255.82-0.65L255.82-0.65Q251.86-2.16 251.86-5.90L251.86-5.90L251.86-39.53L251.86-39.53Q251.86-41.04 252.68-41.87L252.68-41.87L252.68-41.87Q253.51-42.70 254.95-43.20L254.95-43.20L254.95-43.20Q258.05-44.21 261.50-44.53L261.50-44.53L261.50-44.53Q264.96-44.86 267.70-44.86L267.70-44.86L267.70-44.86Q273.31-44.86 277.88-43.49L277.88-43.49L277.88-43.49Q282.46-42.12 285.73-39.28L285.73-39.28L285.73-39.28Q289.01-36.43 290.81-32.11L290.81-32.11L290.81-32.11Q292.61-27.79 292.61-21.89L292.61-21.89L292.61-21.89Q292.61-16.13 290.88-11.84L290.88-11.84L290.88-11.84Q289.15-7.56 285.95-4.64L285.95-4.64L285.95-4.64Q282.74-1.73 278.28-0.29L278.28-0.29L278.28-0.29Q273.82 1.15 268.42 1.15ZM299.81-6.48L299.81-36.94L299.81-36.94Q299.81-40.03 301.61-41.83L301.61-41.83L301.61-41.83Q303.41-43.63 306.50-43.63L306.50-43.63L330.26-43.63L330.26-43.63Q330.77-42.84 331.16-41.54L331.16-41.54L331.16-41.54Q331.56-40.25 331.56-38.81L331.56-38.81L331.56-38.81Q331.56-36.07 330.37-34.92L330.37-34.92L330.37-34.92Q329.18-33.77 327.24-33.77L327.24-33.77L312.05-33.77L312.05-27.07L328.25-27.07L328.25-27.07Q328.75-26.28 329.15-25.02L329.15-25.02L329.15-25.02Q329.54-23.76 329.54-22.32L329.54-22.32L329.54-22.32Q329.54-19.58 328.39-18.43L328.39-18.43L328.39-18.43Q327.24-17.28 325.30-17.28L325.30-17.28L312.05-17.28L312.05-9.72L330.55-9.72L330.55-9.72Q331.06-8.93 331.45-7.63L331.45-7.63L331.45-7.63Q331.85-6.34 331.85-4.90L331.85-4.90L331.85-4.90Q331.85-2.16 330.66-0.97L330.66-0.97L330.66-0.97Q329.47 0.22 327.53 0.22L327.53 0.22L306.50 0.22L306.50 0.22Q303.41 0.22 301.61-1.58L301.61-1.58L301.61-1.58Q299.81-3.38 299.81-6.48L299.81-6.48ZM378.79-38.52L378.79-1.51L378.79-1.51Q377.78-0.50 375.88 0.04L375.88 0.04L375.88 0.04Q373.97 0.58 371.30 0.58L371.30 0.58L371.30 0.58Q368.64 0.58 366.26-0.22L366.26-0.22L366.26-0.22Q363.89-1.01 362.38-4.03L362.38-4.03L355.25-18.58L355.25-18.58Q354.17-20.81 353.30-22.79L353.30-22.79L353.30-22.79Q352.44-24.77 351.43-27.36L351.43-27.36L351.00-27.29L351.00-27.29Q351.29-23.40 351.32-19.37L351.32-19.37L351.32-19.37Q351.36-15.34 351.36-11.45L351.36-11.45L351.36-0.29L351.36-0.29Q350.57-0.07 348.95 0.14L348.95 0.14L348.95 0.14Q347.33 0.36 345.74 0.36L345.74 0.36L345.74 0.36Q344.16 0.36 342.94 0.14L342.94 0.14L342.94 0.14Q341.71-0.07 340.92-0.72L340.92-0.72L340.92-0.72Q340.13-1.37 339.70-2.48L339.70-2.48L339.70-2.48Q339.26-3.60 339.26-5.40L339.26-5.40L339.26-41.40L339.26-41.40Q340.27-42.84 342.36-43.56L342.36-43.56L342.36-43.56Q344.45-44.28 346.82-44.28L346.82-44.28L346.82-44.28Q349.49-44.28 351.90-43.45L351.90-43.45L351.90-43.45Q354.31-42.62 355.75-39.67L355.75-39.67L362.95-25.13L362.95-25.13Q364.03-22.90 364.90-20.92L364.90-20.92L364.90-20.92Q365.76-18.94 366.77-16.34L366.77-16.34L367.13-16.42L367.13-16.42Q366.84-20.30 366.77-24.19L366.77-24.19L366.77-24.19Q366.70-28.08 366.70-31.97L366.70-31.97L366.70-43.63L366.70-43.63Q367.49-43.85 369.11-44.06L369.11-44.06L369.11-44.06Q370.73-44.28 372.31-44.28L372.31-44.28L372.31-44.28Q375.48-44.28 377.14-43.16L377.14-43.16L377.14-43.16Q378.79-42.05 378.79-38.52L378.79-38.52Z" fill="url(#editing-glowing-gradient)"></path></g></g><style>text {
  font-size: 64px;
  font-family: Arial Black;
  dominant-baseline: central;
  text-anchor: middle;
}</style></svg>