<?xml version="1.0" encoding="utf-8"?>
<svg viewBox="159.718 112.444 209.09 274.709" xmlns="http://www.w3.org/2000/svg">
  <path d="M 310.413 300.644 C 312.666 303.806 317.101 299.626 319.154 297.945 C 320.954 296.464 322.98 294.628 324.97 292.756 C 332.385 285.759 340.945 274.791 351.731 274.119 C 363.108 273.265 370.387 283.506 368.515 294.31 C 366.98 303.106 361.736 307.714 355.83 313.647 L 302.089 367.933 L 300.172 370.005 L 300.053 369.887 C 286.396 382.3 273.419 387.153 254.945 387.153 L 219.406 387.153 C 201.504 387.153 185.248 379.229 174.207 366.134 C 165.974 356.402 161.439 345.089 160.204 332.403 C 159.395 323.952 159.84 315.392 159.84 306.559 L 159.84 279.98 C 159.84 271.438 162.848 264.414 167.491 259.007 C 181.031 243.259 215.762 247.903 234.672 247.903 L 276.5 247.903 C 289.685 247.903 301.744 255.817 306.969 267.912 C 309.377 273.519 309.74 277.463 309.74 283.833 L 309.74 293.565 C 299.917 290.285 292.075 288.331 281.97 287.986 C 265.786 287.786 250.474 294.219 242.76 309.077 C 239.57 314.974 237.725 322.753 237.407 329.504 L 243.341 329.586 C 243.959 320.263 246.494 312.375 252.692 305.16 C 264.478 291.439 286.623 292.047 302.362 297.363 C 305.006 298.19 308.168 298.999 310.413 300.644 Z M 276.7 240.642 L 276.7 154.96 C 276.7 139.421 296.718 132.551 306.178 145.419 C 307.768 147.591 308.804 150.026 309.186 152.643 C 309.331 153.733 309.349 154.724 309.349 155.814 L 309.349 250.91 L 304.742 252.791 C 296.201 244.25 288.567 241.578 276.7 240.642 Z M 198.433 240.769 L 198.433 155.86 C 198.433 155.324 198.424 154.778 198.442 154.251 C 198.815 140.166 216.08 133.006 226.239 143.202 C 229.265 146.228 231.037 150.353 231.037 154.642 L 231.037 240.806 L 198.433 240.769 Z M 164.484 252.791 L 159.84 250.965 L 159.84 182.376 C 159.84 167.5 177.633 160.83 187.647 170.808 C 190.445 173.607 192.154 177.405 192.381 181.331 C 192.417 181.876 192.417 182.376 192.417 182.912 L 192.417 240.687 C 180.886 241.387 172.735 244.34 164.484 252.791 Z M 237.68 240.769 L 237.68 128.789 C 237.68 124.291 239.515 120.202 242.451 117.267 C 248.839 110.879 259.08 110.806 265.486 117.231 C 267.749 119.493 269.357 122.447 269.957 125.6 C 270.248 127.108 270.248 128.499 270.248 130.034 L 270.248 240.769 L 237.68 240.769 Z" style="fill: rgb(0, 82, 121);"/>
</svg>