<svg width="544.6625px" height="176px" xmlns="http://www.w3.org/2000/svg" viewBox="-22.33125000000001 -13 544.6625 176" style="background: none;" preserveAspectRatio="xMidYMid"><defs><linearGradient id="editing-glowing-gradient" x1="0.953153893518325" x2="0.046846106481674976" y1="0.7113091308703496" y2="0.28869086912965036"><stop offset="0" stop-color="#005279"></stop><stop offset="1" stop-color="#005279"></stop></linearGradient><filter id="editing-glowing" x="-100%" y="-100%" width="300%" height="300%"><feGaussianBlur in="SourceGraphic" result="blur" stdDeviation="11"></feGaussianBlur><feMerge><feMergeNode in="blur"></feMergeNode><feMergeNode in="SourceGraphic"></feMergeNode></feMerge></filter></defs><g filter="url(#editing-glowing)"><g transform="translate(55.204975605010986, 98.1500015258789)"><path d="M44.21-38.52L44.21-1.51L44.21-1.51Q43.20-0.50 41.29 0.04L41.29 0.04L41.29 0.04Q39.38 0.58 36.72 0.58L36.72 0.58L36.72 0.58Q34.06 0.58 31.68-0.22L31.68-0.22L31.68-0.22Q29.30-1.01 27.79-4.03L27.79-4.03L20.66-18.58L20.66-18.58Q19.58-20.81 18.72-22.79L18.72-22.79L18.72-22.79Q17.86-24.77 16.85-27.36L16.85-27.36L16.42-27.29L16.42-27.29Q16.70-23.40 16.74-19.37L16.74-19.37L16.74-19.37Q16.78-15.34 16.78-11.45L16.78-11.45L16.78-0.29L16.78-0.29Q15.98-0.07 14.36 0.14L14.36 0.14L14.36 0.14Q12.74 0.36 11.16 0.36L11.16 0.36L11.16 0.36Q9.58 0.36 8.35 0.14L8.35 0.14L8.35 0.14Q7.13-0.07 6.34-0.72L6.34-0.72L6.34-0.72Q5.54-1.37 5.11-2.48L5.11-2.48L5.11-2.48Q4.68-3.60 4.68-5.40L4.68-5.40L4.68-41.40L4.68-41.40Q5.69-42.84 7.78-43.56L7.78-43.56L7.78-43.56Q9.86-44.28 12.24-44.28L12.24-44.28L12.24-44.28Q14.90-44.28 17.32-43.45L17.32-43.45L17.32-43.45Q19.73-42.62 21.17-39.67L21.17-39.67L28.37-25.13L28.37-25.13Q29.45-22.90 30.31-20.92L30.31-20.92L30.31-20.92Q31.18-18.94 32.18-16.34L32.18-16.34L32.54-16.42L32.54-16.42Q32.26-20.30 32.18-24.19L32.18-24.19L32.18-24.19Q32.11-28.08 32.11-31.97L32.11-31.97L32.11-43.63L32.11-43.63Q32.90-43.85 34.52-44.06L34.52-44.06L34.52-44.06Q36.14-44.28 37.73-44.28L37.73-44.28L37.73-44.28Q40.90-44.28 42.55-43.16L42.55-43.16L42.55-43.16Q44.21-42.05 44.21-38.52L44.21-38.52ZM51.41-21.89L51.41-21.89L51.41-21.89Q51.41-27.50 53.17-31.82L53.17-31.82L53.17-31.82Q54.94-36.14 58.00-39.06L58.00-39.06L58.00-39.06Q61.06-41.98 65.20-43.49L65.20-43.49L65.20-43.49Q69.34-45.00 74.16-45.00L74.16-45.00L74.16-45.00Q78.98-45.00 83.12-43.49L83.12-43.49L83.12-43.49Q87.26-41.98 90.36-39.06L90.36-39.06L90.36-39.06Q93.46-36.14 95.22-31.82L95.22-31.82L95.22-31.82Q96.98-27.50 96.98-21.89L96.98-21.89L96.98-21.89Q96.98-16.27 95.26-11.92L95.26-11.92L95.26-11.92Q93.53-7.56 90.47-4.64L90.47-4.64L90.47-4.64Q87.41-1.73 83.23-0.22L83.23-0.22L83.23-0.22Q79.06 1.30 74.16 1.30L74.16 1.30L74.16 1.30Q69.26 1.30 65.09-0.25L65.09-0.25L65.09-0.25Q60.91-1.80 57.89-4.75L57.89-4.75L57.89-4.75Q54.86-7.70 53.14-12.02L53.14-12.02L53.14-12.02Q51.41-16.34 51.41-21.89ZM64.37-21.89L64.37-21.89L64.37-21.89Q64.37-15.34 67.03-12.10L67.03-12.10L67.03-12.10Q69.70-8.86 74.16-8.86L74.16-8.86L74.16-8.86Q78.70-8.86 81.36-12.10L81.36-12.10L81.36-12.10Q84.02-15.34 84.02-21.89L84.02-21.89L84.02-21.89Q84.02-28.37 81.40-31.61L81.40-31.61L81.40-31.61Q78.77-34.85 74.23-34.85L74.23-34.85L74.23-34.85Q69.77-34.85 67.07-31.64L67.07-31.64L67.07-31.64Q64.37-28.44 64.37-21.89ZM112.97-33.55L102.17-33.55L102.17-33.55Q101.66-34.34 101.23-35.71L101.23-35.71L101.23-35.71Q100.80-37.08 100.80-38.59L100.80-38.59L100.80-38.59Q100.80-41.40 102.06-42.62L102.06-42.62L102.06-42.62Q103.32-43.85 105.34-43.85L105.34-43.85L136.73-43.85L136.73-43.85Q137.23-43.06 137.66-41.69L137.66-41.69L137.66-41.69Q138.10-40.32 138.10-38.81L138.10-38.81L138.10-38.81Q138.10-36.00 136.84-34.78L136.84-34.78L136.84-34.78Q135.58-33.55 133.56-33.55L133.56-33.55L125.57-33.55L125.57-0.29L125.57-0.29Q124.78-0.07 123.08 0.14L123.08 0.14L123.08 0.14Q121.39 0.36 119.74 0.36L119.74 0.36L119.74 0.36Q118.08 0.36 116.82 0.11L116.82 0.11L116.82 0.11Q115.56-0.14 114.70-0.79L114.70-0.79L114.70-0.79Q113.83-1.44 113.40-2.59L113.40-2.59L113.40-2.59Q112.97-3.74 112.97-5.62L112.97-5.62L112.97-33.55ZM165.31-43.63L189.29-43.63L189.29-43.63Q189.79-42.84 190.19-41.51L190.19-41.51L190.19-41.51Q190.58-40.18 190.58-38.74L190.58-38.74L190.58-38.74Q190.58-35.93 189.40-34.74L189.40-34.74L189.40-34.74Q188.21-33.55 186.19-33.55L186.19-33.55L171.07-33.55L171.07-25.42L186.84-25.42L186.84-25.42Q187.42-24.62 187.81-23.33L187.81-23.33L187.81-23.33Q188.21-22.03 188.21-20.59L188.21-20.59L188.21-20.59Q188.21-17.86 187.02-16.67L187.02-16.67L187.02-16.67Q185.83-15.48 183.82-15.48L183.82-15.48L171.22-15.48L171.22-0.29L171.22-0.29Q170.42-0.07 168.73 0.14L168.73 0.14L168.73 0.14Q167.04 0.36 165.38 0.36L165.38 0.36L165.38 0.36Q163.73 0.36 162.47 0.11L162.47 0.11L162.47 0.11Q161.21-0.14 160.34-0.79L160.34-0.79L160.34-0.79Q159.48-1.44 159.05-2.59L159.05-2.59L159.05-2.59Q158.62-3.74 158.62-5.62L158.62-5.62L158.62-36.94L158.62-36.94Q158.62-40.03 160.42-41.83L160.42-41.83L160.42-41.83Q162.22-43.63 165.31-43.63L165.31-43.63ZM194.69-21.89L194.69-21.89L194.69-21.89Q194.69-27.50 196.45-31.82L196.45-31.82L196.45-31.82Q198.22-36.14 201.28-39.06L201.28-39.06L201.28-39.06Q204.34-41.98 208.48-43.49L208.48-43.49L208.48-43.49Q212.62-45.00 217.44-45.00L217.44-45.00L217.44-45.00Q222.26-45.00 226.40-43.49L226.40-43.49L226.40-43.49Q230.54-41.98 233.64-39.06L233.64-39.06L233.64-39.06Q236.74-36.14 238.50-31.82L238.50-31.82L238.50-31.82Q240.26-27.50 240.26-21.89L240.26-21.89L240.26-21.89Q240.26-16.27 238.54-11.92L238.54-11.92L238.54-11.92Q236.81-7.56 233.75-4.64L233.75-4.64L233.75-4.64Q230.69-1.73 226.51-0.22L226.51-0.22L226.51-0.22Q222.34 1.30 217.44 1.30L217.44 1.30L217.44 1.30Q212.54 1.30 208.37-0.25L208.37-0.25L208.37-0.25Q204.19-1.80 201.17-4.75L201.17-4.75L201.17-4.75Q198.14-7.70 196.42-12.02L196.42-12.02L196.42-12.02Q194.69-16.34 194.69-21.89ZM207.65-21.89L207.65-21.89L207.65-21.89Q207.65-15.34 210.31-12.10L210.31-12.10L210.31-12.10Q212.98-8.86 217.44-8.86L217.44-8.86L217.44-8.86Q221.98-8.86 224.64-12.10L224.64-12.10L224.64-12.10Q227.30-15.34 227.30-21.89L227.30-21.89L227.30-21.89Q227.30-28.37 224.68-31.61L224.68-31.61L224.68-31.61Q222.05-34.85 217.51-34.85L217.51-34.85L217.51-34.85Q213.05-34.85 210.35-31.64L210.35-31.64L210.35-31.64Q207.65-28.44 207.65-21.89ZM286.13-38.30L286.13-16.13L286.13-16.13Q286.13-12.24 284.80-9.04L284.80-9.04L284.80-9.04Q283.46-5.83 280.94-3.56L280.94-3.56L280.94-3.56Q278.42-1.30 274.82-0.07L274.82-0.07L274.82-0.07Q271.22 1.15 266.69 1.15L266.69 1.15L266.69 1.15Q262.15 1.15 258.55-0.07L258.55-0.07L258.55-0.07Q254.95-1.30 252.43-3.56L252.43-3.56L252.43-3.56Q249.91-5.83 248.58-9.04L248.58-9.04L248.58-9.04Q247.25-12.24 247.25-16.13L247.25-16.13L247.25-43.63L247.25-43.63Q248.04-43.78 249.77-44.03L249.77-44.03L249.77-44.03Q251.50-44.28 253.08-44.28L253.08-44.28L253.08-44.28Q254.74-44.28 256.00-44.03L256.00-44.03L256.00-44.03Q257.26-43.78 258.12-43.13L258.12-43.13L258.12-43.13Q258.98-42.48 259.42-41.33L259.42-41.33L259.42-41.33Q259.85-40.18 259.85-38.30L259.85-38.30L259.85-16.34L259.85-16.34Q259.85-12.89 261.76-10.94L261.76-10.94L261.76-10.94Q263.66-9.00 266.69-9.00L266.69-9.00L266.69-9.00Q269.78-9.00 271.66-10.94L271.66-10.94L271.66-10.94Q273.53-12.89 273.53-16.34L273.53-16.34L273.53-43.63L273.53-43.63Q274.32-43.78 276.05-44.03L276.05-44.03L276.05-44.03Q277.78-44.28 279.36-44.28L279.36-44.28L279.36-44.28Q281.02-44.28 282.28-44.03L282.28-44.03L282.28-44.03Q283.54-43.78 284.40-43.13L284.40-43.13L284.40-43.13Q285.26-42.48 285.70-41.33L285.70-41.33L285.70-41.33Q286.13-40.18 286.13-38.30L286.13-38.30ZM334.80-38.52L334.80-1.51L334.80-1.51Q333.79-0.50 331.88 0.04L331.88 0.04L331.88 0.04Q329.98 0.58 327.31 0.58L327.31 0.58L327.31 0.58Q324.65 0.58 322.27-0.22L322.27-0.22L322.27-0.22Q319.90-1.01 318.38-4.03L318.38-4.03L311.26-18.58L311.26-18.58Q310.18-20.81 309.31-22.79L309.31-22.79L309.31-22.79Q308.45-24.77 307.44-27.36L307.44-27.36L307.01-27.29L307.01-27.29Q307.30-23.40 307.33-19.37L307.33-19.37L307.33-19.37Q307.37-15.34 307.37-11.45L307.37-11.45L307.37-0.29L307.37-0.29Q306.58-0.07 304.96 0.14L304.96 0.14L304.96 0.14Q303.34 0.36 301.75 0.36L301.75 0.36L301.75 0.36Q300.17 0.36 298.94 0.14L298.94 0.14L298.94 0.14Q297.72-0.07 296.93-0.72L296.93-0.72L296.93-0.72Q296.14-1.37 295.70-2.48L295.70-2.48L295.70-2.48Q295.27-3.60 295.27-5.40L295.27-5.40L295.27-41.40L295.27-41.40Q296.28-42.84 298.37-43.56L298.37-43.56L298.37-43.56Q300.46-44.28 302.83-44.28L302.83-44.28L302.83-44.28Q305.50-44.28 307.91-43.45L307.91-43.45L307.91-43.45Q310.32-42.62 311.76-39.67L311.76-39.67L318.96-25.13L318.96-25.13Q320.04-22.90 320.90-20.92L320.90-20.92L320.90-20.92Q321.77-18.94 322.78-16.34L322.78-16.34L323.14-16.42L323.14-16.42Q322.85-20.30 322.78-24.19L322.78-24.19L322.78-24.19Q322.70-28.08 322.70-31.97L322.70-31.97L322.70-43.63L322.70-43.63Q323.50-43.85 325.12-44.06L325.12-44.06L325.12-44.06Q326.74-44.28 328.32-44.28L328.32-44.28L328.32-44.28Q331.49-44.28 333.14-43.16L333.14-43.16L333.14-43.16Q334.80-42.05 334.80-38.52L334.80-38.52ZM356.69-34.42L356.69-9.36L356.69-9.36Q357.48-9.22 358.63-9.11L358.63-9.11L358.63-9.11Q359.78-9.00 360.79-9.00L360.79-9.00L360.79-9.00Q363.24-9.00 365.29-9.72L365.29-9.72L365.29-9.72Q367.34-10.44 368.82-11.95L368.82-11.95L368.82-11.95Q370.30-13.46 371.12-15.88L371.12-15.88L371.12-15.88Q371.95-18.29 371.95-21.67L371.95-21.67L371.95-21.67Q371.95-28.15 368.93-31.43L368.93-31.43L368.93-31.43Q365.90-34.70 360.86-34.70L360.86-34.70L360.86-34.70Q359.86-34.70 358.81-34.63L358.81-34.63L358.81-34.63Q357.77-34.56 356.69-34.42L356.69-34.42ZM360.72 1.15L360.72 1.15L360.72 1.15Q359.50 1.15 357.91 1.08L357.91 1.08L357.91 1.08Q356.33 1.01 354.64 0.79L354.64 0.79L354.64 0.79Q352.94 0.58 351.25 0.25L351.25 0.25L351.25 0.25Q349.56-0.07 348.12-0.65L348.12-0.65L348.12-0.65Q344.16-2.16 344.16-5.90L344.16-5.90L344.16-39.53L344.16-39.53Q344.16-41.04 344.99-41.87L344.99-41.87L344.99-41.87Q345.82-42.70 347.26-43.20L347.26-43.20L347.26-43.20Q350.35-44.21 353.81-44.53L353.81-44.53L353.81-44.53Q357.26-44.86 360-44.86L360-44.86L360-44.86Q365.62-44.86 370.19-43.49L370.19-43.49L370.19-43.49Q374.76-42.12 378.04-39.28L378.04-39.28L378.04-39.28Q381.31-36.43 383.11-32.11L383.11-32.11L383.11-32.11Q384.91-27.79 384.91-21.89L384.91-21.89L384.91-21.89Q384.91-16.13 383.18-11.84L383.18-11.84L383.18-11.84Q381.46-7.56 378.25-4.64L378.25-4.64L378.25-4.64Q375.05-1.73 370.58-0.29L370.58-0.29L370.58-0.29Q366.12 1.15 360.72 1.15Z" fill="url(#editing-glowing-gradient)"></path></g></g><style>text {
  font-size: 64px;
  font-family: Arial Black;
  dominant-baseline: central;
  text-anchor: middle;
}</style></svg>